<?xml version="1.0" encoding="UTF-8"?>
<svg width="17px" height="18px" viewBox="0 0 17 18" version="1.1" xmlns="http://www.w3.org/2000/svg" xmlns:xlink="http://www.w3.org/1999/xlink">
    <!-- Generator: Sketch 51 (57462) - http://www.bohemiancoding.com/sketch -->
    <title>wo</title>
    <desc>Created with Sketch.</desc>
    <defs></defs>
    <g id="Page-1" stroke="none" stroke-width="1" fill="none" fill-rule="evenodd">
        <g id="Artboard" transform="translate(-436.000000, -253.000000)" fill="#757575" fill-rule="nonzero">
            <g id="wo" transform="translate(436.000000, 253.000000)">
                <path d="M13.826705,11.7000965 C13.5616971,11.4410865 13.1015677,11.44041 12.8351791,11.700773 C12.5625572,11.9689353 12.5632475,12.4049029 12.8365598,12.6720505 C14.101398,13.9118285 14.7981706,15.5601172 14.7981706,17.31316 C14.7981706,17.6918462 15.1126594,18 15.4994305,18 C15.8858767,18 16.2,17.6918263 16.2,17.31316 C16.2000203,15.1926326 15.3572618,13.1992227 13.826705,11.7000965 Z M8.1,9.67063238e-16 C5.07387025,9.67063238e-16 2.61166403,2.41276414 2.61166403,5.37846626 C2.61166403,7.2427094 3.57206393,8.9327008 5.15413199,9.91549822 C4.11935849,10.3121508 3.16693806,10.9223702 2.37260464,11.7007531 C0.842758499,13.1992028 0,15.1926127 0,17.3131401 C0,17.6914881 0.314468478,17.9993036 0.700914697,17.9993036 C1.08736092,17.9993036 1.40182937,17.6914681 1.40182937,17.3131401 C1.40182937,15.5604356 2.09860204,13.9121468 3.36378543,12.6716923 C4.57879761,11.4810781 6.19272265,10.7993116 7.88861496,10.7518589 C7.95850136,10.7552413 8.02942325,10.7566142 8.1,10.7566142 C11.1264749,10.7566142 13.5886811,8.34385001 13.5886811,5.37848615 C13.5887014,2.41278405 11.1264749,1.94431501e-08 8.1,9.67063238e-16 Z M8.18891126,9.38189946 C8.15912048,9.37768534 8.12906396,9.37553121 8.09896449,9.37545306 C8.03045877,9.37545306 7.96229821,9.37646778 7.91318282,9.3784972 C5.72635987,9.28120432 4.0134934,7.52408282 4.0134934,5.37846626 C4.0134934,3.17011666 5.84674235,1.37334185 8.1,1.37334185 C10.3532576,1.37334185 12.1865066,3.17011666 12.1865066,5.37846626 C12.1865066,7.54376026 10.3954697,9.33512328 8.18891126,9.38189946 Z" id="Shape"></path>
            </g>
        </g>
    </g>
</svg>