<?xml version="1.0" encoding="UTF-8"?>
<svg width="20px" height="20px" viewBox="0 0 20 20" version="1.1" xmlns="http://www.w3.org/2000/svg" xmlns:xlink="http://www.w3.org/1999/xlink">
    <!-- Generator: Sketch 51 (57462) - http://www.bohemiancoding.com/sketch -->
    <title>问题</title>
    <desc>Created with Sketch.</desc>
    <defs></defs>
    <g id="Page-1" stroke="none" stroke-width="1" fill="none" fill-rule="evenodd">
        <g id="Artboard" transform="translate(-344.000000, -252.000000)" fill="#757575">
            <g id="任务" transform="translate(345.000000, 253.000000)">
                <path d="M15.42825,0 L2.57174999,0 C1.15141935,0 0,1.15141935 0,2.57174999 L0,15.42825 C0,16.8485806 1.15141935,18 2.57174999,18 C6.74239694,18 9.87038215,18 11.9557056,18 C12.7273821,18 13.8848969,18 15.42825,18 C16.8485806,18 18,16.8485806 18,15.42825 L18,2.57174999 C18,1.15141935 16.8485806,0 15.42825,0 Z M16.7153226,15.4317339 C16.7155934,15.7725477 16.5802062,16.0994551 16.339051,16.3402835 C16.0978958,16.5811119 15.7708051,16.7160556 15.429992,16.7153226 C13.8834903,16.7153226 12.723614,16.7153226 11.9503632,16.7153226 C9.86688818,16.7153226 6.74167573,16.7153226 2.5747258,16.7153226 C2.23091129,16.7153226 1.90625805,16.5832258 1.66311291,16.3400806 C1.41996778,16.0969355 1.28467742,15.7755484 1.28467742,15.4317339 L1.28467742,2.57298387 C1.28595804,1.86132295 1.86306379,1.28499645 2.5747258,1.28467742 L15.429992,1.28467742 C15.7712923,1.28502369 16.098471,1.42096178 16.3395278,1.66257661 C16.5805845,1.90419143 16.7157656,2.23168361 16.7153226,2.57298387 C16.7153226,6.51846003 16.7153226,9.47756715 16.7153226,11.4503052 C16.7153226,12.3350671 16.7153226,13.66221 16.7153226,15.4317339 Z" id="Shape" stroke="#757575" stroke-width="0.3" fill-rule="nonzero"></path>
                <text id="+" stroke="#757575" font-family="MicrosoftYaHei, Microsoft YaHei" font-size="13" font-weight="normal">
                    <tspan x="7" y="16">+</tspan>
                </text>
                <path d="M8.36894702,4.23549604 L3.31581701,4.23549604 C2.96729607,4.23549604 2.68476402,4.51325752 2.68476402,4.85589366 C2.68476402,5.1985298 2.96729607,5.47629127 3.31581701,5.47629127 L8.36894702,5.47629127 C8.71746796,5.47629127 9,5.1985298 9,4.85589366 C9,4.51325752 8.71746796,4.23549604 8.36894702,4.23549604 Z M8.36894702,9.20568709 L3.31581701,9.20568709 C2.96729607,9.20568709 2.68476402,9.48344856 2.68476402,9.8260847 C2.68476402,10.1687208 2.96729607,10.4464823 3.31581701,10.4464823 L8.36894702,10.4464823 C8.71746796,10.4464823 9,10.1687208 9,9.8260847 C9,9.48344856 8.71746796,9.20568709 8.36894702,9.20568709 Z" id="Shape" fill-rule="nonzero"></path>
            </g>
        </g>
    </g>
</svg>